<svg width="1400" height="340" viewBox="0 0 1400 340" fill="none" xmlns="http://www.w3.org/2000/svg" role="img" aria-labelledby="title desc">
  <title id="title">Activity chart</title>
  <desc id="desc">Contribution style grid with highlighted squares and progress bars.</desc>
  <rect width="1400" height="340" fill="#0D1117"/>

  <g opacity="0.95">
    <rect x="40" y="30" width="1320" height="210" rx="6" fill="#0D1117" stroke="#30363D"/>
  </g>

  <g transform="translate(70 62)">
    <g id="cell" fill="#161B22">
      <rect x="0" y="0" width="12" height="12" rx="2"/>
    </g>

    <g>
      <!-- Grid rows -->
      <g transform="translate(0 0)">
        <use href="#cell" x="0" y="0"/><use href="#cell" x="16" y="0"/><use href="#cell" x="32" y="0"/><use href="#cell" x="48" y="0"/><use href="#cell" x="64" y="0"/><use href="#cell" x="80" y="0"/><use href="#cell" x="96" y="0"/><use href="#cell" x="112" y="0"/><use href="#cell" x="128" y="0"/><use href="#cell" x="144" y="0"/><use href="#cell" x="160" y="0"/><use href="#cell" x="176" y="0"/><use href="#cell" x="192" y="0"/><use href="#cell" x="208" y="0"/><use href="#cell" x="224" y="0"/><use href="#cell" x="240" y="0"/><use href="#cell" x="256" y="0"/><use href="#cell" x="272" y="0"/><use href="#cell" x="288" y="0"/><use href="#cell" x="304" y="0"/><use href="#cell" x="320" y="0"/><use href="#cell" x="336" y="0"/><use href="#cell" x="352" y="0"/><use href="#cell" x="368" y="0"/><use href="#cell" x="384" y="0"/><use href="#cell" x="400" y="0"/><use href="#cell" x="416" y="0"/><use href="#cell" x="432" y="0"/><use href="#cell" x="448" y="0"/><use href="#cell" x="464" y="0"/><use href="#cell" x="480" y="0"/><use href="#cell" x="496" y="0"/><use href="#cell" x="512" y="0"/><use href="#cell" x="528" y="0"/><use href="#cell" x="544" y="0"/><use href="#cell" x="560" y="0"/><use href="#cell" x="576" y="0"/><use href="#cell" x="592" y="0"/><use href="#cell" x="608" y="0"/><use href="#cell" x="624" y="0"/><use href="#cell" x="640" y="0"/><use href="#cell" x="656" y="0"/><use href="#cell" x="672" y="0"/><use href="#cell" x="688" y="0"/><use href="#cell" x="704" y="0"/><use href="#cell" x="720" y="0"/><use href="#cell" x="736" y="0"/><use href="#cell" x="752" y="0"/><use href="#cell" x="768" y="0"/><use href="#cell" x="784" y="0"/><use href="#cell" x="800" y="0"/><use href="#cell" x="816" y="0"/><use href="#cell" x="832" y="0"/><use href="#cell" x="848" y="0"/><use href="#cell" x="864" y="0"/><use href="#cell" x="880" y="0"/><use href="#cell" x="896" y="0"/><use href="#cell" x="912" y="0"/><use href="#cell" x="928" y="0"/><use href="#cell" x="944" y="0"/><use href="#cell" x="960" y="0"/><use href="#cell" x="976" y="0"/><use href="#cell" x="992" y="0"/><use href="#cell" x="1008" y="0"/><use href="#cell" x="1024" y="0"/><use href="#cell" x="1040" y="0"/><use href="#cell" x="1056" y="0"/><use href="#cell" x="1072" y="0"/><use href="#cell" x="1088" y="0"/><use href="#cell" x="1104" y="0"/><use href="#cell" x="1120" y="0"/><use href="#cell" x="1136" y="0"/><use href="#cell" x="1152" y="0"/><use href="#cell" x="1168" y="0"/><use href="#cell" x="1184" y="0"/><use href="#cell" x="1200" y="0"/><use href="#cell" x="1216" y="0"/><use href="#cell" x="1232" y="0"/><use href="#cell" x="1248" y="0"/><use href="#cell" x="1264" y="0"/><use href="#cell" x="1280" y="0"/><use href="#cell" x="1296" y="0"/><use href="#cell" x="1312" y="0"/>
      </g>
    </g>

    <g fill="#DA2EFF">
      <rect x="144" y="16" width="12" height="12" rx="3"/>
      <rect x="160" y="16" width="12" height="12" rx="3"/>
      <rect x="176" y="16" width="12" height="12" rx="3"/>
      <rect x="192" y="16" width="12" height="12" rx="3"/>
    </g>

    <g fill="#161B22">
      <rect x="0" y="16" width="12" height="12" rx="2"/><rect x="16" y="16" width="12" height="12" rx="2"/><rect x="32" y="16" width="12" height="12" rx="2"/><rect x="48" y="16" width="12" height="12" rx="2"/><rect x="64" y="16" width="12" height="12" rx="2"/><rect x="80" y="16" width="12" height="12" rx="2"/><rect x="96" y="16" width="12" height="12" rx="2"/><rect x="112" y="16" width="12" height="12" rx="2"/><rect x="208" y="16" width="12" height="12" rx="2"/><rect x="224" y="16" width="12" height="12" rx="2"/><rect x="240" y="16" width="12" height="12" rx="2"/><rect x="256" y="16" width="12" height="12" rx="2"/><rect x="272" y="16" width="12" height="12" rx="2"/><rect x="288" y="16" width="12" height="12" rx="2"/><rect x="304" y="16" width="12" height="12" rx="2"/><rect x="320" y="16" width="12" height="12" rx="2"/><rect x="336" y="16" width="12" height="12" rx="2"/><rect x="352" y="16" width="12" height="12" rx="2"/><rect x="368" y="16" width="12" height="12" rx="2"/><rect x="384" y="16" width="12" height="12" rx="2"/><rect x="400" y="16" width="12" height="12" rx="2"/><rect x="416" y="16" width="12" height="12" rx="2"/><rect x="432" y="16" width="12" height="12" rx="2"/><rect x="448" y="16" width="12" height="12" rx="2"/><rect x="464" y="16" width="12" height="12" rx="2"/><rect x="480" y="16" width="12" height="12" rx="2"/><rect x="496" y="16" width="12" height="12" rx="2"/><rect x="512" y="16" width="12" height="12" rx="2"/><rect x="528" y="16" width="12" height="12" rx="2"/><rect x="544" y="16" width="12" height="12" rx="2"/><rect x="560" y="16" width="12" height="12" rx="2"/><rect x="576" y="16" width="12" height="12" rx="2"/><rect x="592" y="16" width="12" height="12" rx="2"/><rect x="608" y="16" width="12" height="12" rx="2"/><rect x="624" y="16" width="12" height="12" rx="2"/><rect x="640" y="16" width="12" height="12" rx="2"/><rect x="656" y="16" width="12" height="12" rx="2"/><rect x="672" y="16" width="12" height="12" rx="2"/><rect x="688" y="16" width="12" height="12" rx="2"/><rect x="704" y="16" width="12" height="12" rx="2"/><rect x="720" y="16" width="12" height="12" rx="2"/><rect x="736" y="16" width="12" height="12" rx="2"/><rect x="752" y="16" width="12" height="12" rx="2"/><rect x="768" y="16" width="12" height="12" rx="2"/><rect x="784" y="16" width="12" height="12" rx="2"/><rect x="800" y="16" width="12" height="12" rx="2"/><rect x="816" y="16" width="12" height="12" rx="2"/><rect x="832" y="16" width="12" height="12" rx="2"/><rect x="848" y="16" width="12" height="12" rx="2"/><rect x="864" y="16" width="12" height="12" rx="2"/><rect x="880" y="16" width="12" height="12" rx="2"/><rect x="896" y="16" width="12" height="12" rx="2"/><rect x="912" y="16" width="12" height="12" rx="2"/><rect x="928" y="16" width="12" height="12" rx="2"/><rect x="944" y="16" width="12" height="12" rx="2"/><rect x="960" y="16" width="12" height="12" rx="2"/><rect x="976" y="16" width="12" height="12" rx="2"/><rect x="992" y="16" width="12" height="12" rx="2"/><rect x="1008" y="16" width="12" height="12" rx="2"/><rect x="1024" y="16" width="12" height="12" rx="2"/><rect x="1040" y="16" width="12" height="12" rx="2"/><rect x="1056" y="16" width="12" height="12" rx="2"/><rect x="1072" y="16" width="12" height="12" rx="2"/><rect x="1088" y="16" width="12" height="12" rx="2"/><rect x="1104" y="16" width="12" height="12" rx="2"/><rect x="1120" y="16" width="12" height="12" rx="2"/><rect x="1136" y="16" width="12" height="12" rx="2"/><rect x="1152" y="16" width="12" height="12" rx="2"/><rect x="1168" y="16" width="12" height="12" rx="2"/><rect x="1184" y="16" width="12" height="12" rx="2"/><rect x="1200" y="16" width="12" height="12" rx="2"/><rect x="1216" y="16" width="12" height="12" rx="2"/><rect x="1232" y="16" width="12" height="12" rx="2"/><rect x="1248" y="16" width="12" height="12" rx="2"/><rect x="1264" y="16" width="12" height="12" rx="2"/><rect x="1280" y="16" width="12" height="12" rx="2"/><rect x="1296" y="16" width="12" height="12" rx="2"/><rect x="1312" y="16" width="12" height="12" rx="2"/>
    </g>
  </g>

  <rect x="70" y="278" width="1260" height="10" rx="5" fill="#004B2D"/>
  <rect x="1010" y="278" width="320" height="10" rx="5" fill="#046D3A"/>
  <rect x="1200" y="278" width="65" height="10" rx="5" fill="#0E9E4D"/>
  <rect x="1265" y="278" width="65" height="10" rx="5" fill="#12D65F"/>
</svg>
